<?xml version="1.0" standalone="no"?>
<!DOCTYPE svg PUBLIC "-//W3C//DTD SVG 20010904//EN"
 "http://www.w3.org/TR/2001/REC-SVG-20010904/DTD/svg10.dtd">
<svg
  version="1.0"
  xmlns="http://www.w3.org/2000/svg"
  width="300.000000pt"
  height="300.000000pt"
  viewBox="0 0 300.000000 300.000000"
  preserveAspectRatio="xMidYMid meet"
>
  <metadata
  >
Created by potrace 1.14, written by Peter Selinger 2001-2017
</metadata>
  <g
    transform="translate(0.000000,300.000000) scale(0.100000,-0.100000)"
    fill="#000000"
    stroke="none"
  >
    <path
      d="M0 1500 l0 -1500 1500 0 1500 0 0 1500 0 1500 -1500 0 -1500 0 0
-1500z m2420 355 l0 -905 -74 0 -74 0 -18 65 -17 66 -41 -39 c-97 -93 -192
-127 -330 -119 -109 6 -171 24 -250 72 -32 19 -60 35 -62 35 -2 0 -4 -42 -4
-94 0 -124 -13 -186 -57 -276 -60 -123 -146 -193 -303 -248 -69 -23 -89 -26
-250 -26 -138 -1 -189 3 -240 17 -124 33 -118 27 -122 123 -3 72 -1 84 12 80
135 -45 156 -49 315 -50 143 -1 166 1 219 21 80 31 130 67 166 121 44 67 60
131 67 276 l6 129 -55 -46 c-72 -58 -152 -88 -253 -94 -263 -17 -462 128 -532
387 -25 91 -25 338 0 430 29 111 91 221 162 290 184 176 469 187 631 24 25
-24 46 -44 48 -44 2 0 12 29 21 65 l18 65 73 0 74 0 0 -71 0 -71 23 16 c100
72 183 104 292 113 121 9 234 -28 325 -107 l35 -30 3 365 2 365 95 0 95 0 0
-905z"
    />
    <path
      d="M949 2027 c-90 -34 -150 -89 -192 -180 -66 -137 -73 -361 -17 -511
31 -80 106 -159 178 -186 134 -51 305 -14 415 88 l27 26 0 308 0 309 -48 48
c-69 69 -148 104 -247 108 -51 2 -93 -2 -116 -10z"
    />
    <path
      d="M1813 1982 c-95 -34 -155 -95 -197 -198 -62 -153 -55 -388 14 -525
104 -202 369 -232 551 -62 l49 46 0 309 0 309 -37 34 c-21 19 -67 49 -102 66
-83 41 -198 50 -278 21z"
    />
  </g>
</svg>
